<svg xmlns="http://www.w3.org/2000/svg" xmlns:svgjs="http://svgjs.com/svgjs" xmlns:xlink="http://www.w3.org/1999/xlink" id="freepik_stories-no-data" class="animated" version="1.1" viewBox="0 0 500 500"><style>@keyframes floating{0%{opacity:1;transform:translateY(0)}50%{transform:translateY(-10px)}}svg#freepik_stories-no-data:not(.animated) .animable{opacity:0}svg#freepik_stories-no-data.animated #freepik--window-no-data--inject-2{animation:1.5s Infinite linear floating;animation-delay:0s}svg#freepik_stories-no-data.animated #freepik--Character--inject-2{animation:3s Infinite linear floating;animation-delay:.5s}</style><g style="transform-origin:275.716px 216.603px" id="freepik--background-simple--inject-2" class="animable animator-active"><path id="elg07yweobdro" d="M240.47,127.1c48.1,5.38,69.21-36.32,116.88-30.86,42.54,4.87,71.88,35.18,61.95,76-8.82,36.24-50.81,47.61-65.74,81.56-15.83,36-28.1,74.79-75.9,87.32-93.85,24.6-139.44-90.88-145.83-157.21-2.45-25.46-6.73-86.33,26.51-94.21C191.79,81.76,211,123.8,240.47,127.1Z" class="animable" style="fill:#407bff;transform-origin:275.716px 216.603px"/><g id="eluyvg6zmh5ne"><path style="fill:#fff;opacity:.9;transform-origin:275.716px 216.603px" d="M240.47,127.1c48.1,5.38,69.21-36.32,116.88-30.86,42.54,4.87,71.88,35.18,61.95,76-8.82,36.24-50.81,47.61-65.74,81.56-15.83,36-28.1,74.79-75.9,87.32-93.85,24.6-139.44-90.88-145.83-157.21-2.45-25.46-6.73-86.33,26.51-94.21C191.79,81.76,211,123.8,240.47,127.1Z" class="animable"/></g></g><g style="transform-origin:250px 416.24px" id="freepik--Shadow--inject-2" class="animable"><ellipse style="fill:#f5f5f5;transform-origin:250px 416.24px" id="freepik--path--inject-2" cx="250" cy="416.24" class="animable" rx="193.89" ry="11.32"/></g><g style="transform-origin:224.924px 233.29px" id="freepik--window-no-data--inject-2" class="animable"><g id="elu8hbyki8qx"><rect style="fill:#407bff;transform-origin:104.28px 211.615px;transform:rotate(-4.12deg)" width="1" height="18.49" x="103.78" y="202.37" class="animable"/></g><g id="el074am4ggwdvr"><rect style="fill:#407bff;transform-origin:105.88px 233.83px;transform:rotate(-4.12deg)" width="1" height="6.96" x="105.38" y="230.35" class="animable"/></g><path id="el7wianrb2p82" d="M337.71,315.16H123.55a9.65,9.65,0,0,1-9.44-8.81L103.59,160.22a8.1,8.1,0,0,1,8.17-8.8H325.92a9.65,9.65,0,0,1,9.44,8.8l10.52,146.13A8.11,8.11,0,0,1,337.71,315.16Z" class="animable" style="fill:#407bff;transform-origin:224.735px 233.29px"/><path id="el8unvszr8w49" d="M338.53,315.16H124.37a9.65,9.65,0,0,1-9.44-8.81L104.41,160.22a8.1,8.1,0,0,1,8.17-8.8H326.74a9.65,9.65,0,0,1,9.44,8.8L346.7,306.35A8.1,8.1,0,0,1,338.53,315.16Z" class="animable" style="fill:#407bff;transform-origin:225.555px 233.29px"/><g id="el5ncc2glx1xs"><path style="fill:#fff;opacity:.5;transform-origin:225.555px 233.29px" d="M338.53,315.16H124.37a9.65,9.65,0,0,1-9.44-8.81L104.41,160.22a8.1,8.1,0,0,1,8.17-8.8H326.74a9.65,9.65,0,0,1,9.44,8.8L346.7,306.35A8.1,8.1,0,0,1,338.53,315.16Z" class="animable"/></g><path id="el2fhga9asis6" d="M327.06,155.82H112.9l-.72,0c-5.47.45-4.35,8.78,1.17,8.78H327.87c5.53,0,5.45-8.33-.09-8.78Z" class="animable" style="fill:#407bff;transform-origin:220.288px 160.21px"/><path id="ele854hgos7r" d="M118.48,160.22a1.85,1.85,0,0,1-1.88,2,2.2,2.2,0,0,1-2.16-2,1.85,1.85,0,0,1,1.87-2A2.2,2.2,0,0,1,118.48,160.22Z" class="animable" style="fill:#fafafa;transform-origin:116.46px 160.22px"/><path id="elvda0tyog3ts" d="M125.35,160.22a1.85,1.85,0,0,1-1.88,2,2.2,2.2,0,0,1-2.16-2,1.85,1.85,0,0,1,1.87-2A2.2,2.2,0,0,1,125.35,160.22Z" class="animable" style="fill:#fafafa;transform-origin:123.33px 160.22px"/><path id="elh2jtgia8edo" d="M132.21,160.22a1.85,1.85,0,0,1-1.87,2,2.19,2.19,0,0,1-2.16-2,1.84,1.84,0,0,1,1.87-2A2.2,2.2,0,0,1,132.21,160.22Z" class="animable" style="fill:#fafafa;transform-origin:130.195px 160.22px"/><path id="elzw32ci4jlxf" d="M332.85,300.58H128a3.49,3.49,0,0,1-3.42-3.2l-8.65-120.17a2.92,2.92,0,0,1,3-3.19h204.9a3.48,3.48,0,0,1,3.42,3.19l8.66,120.17A2.94,2.94,0,0,1,332.85,300.58Z" class="animable" style="fill:#fff;transform-origin:225.92px 237.301px"/><polygon id="eljq3wsktyclj" points="246.53 254.8 243.19 208.48 233.09 202.4 205.28 202.4 209.06 254.8 246.53 254.8" class="animable" style="fill:#fff;transform-origin:225.905px 228.6px"/><path id="elakr7elet94n" d="M246.53,255.28H209.06a.48.48,0,0,1-.49-.45l-3.77-52.4a.47.47,0,0,1,.13-.36.48.48,0,0,1,.35-.16h27.81a.55.55,0,0,1,.25.07l10.1,6.08a.48.48,0,0,1,.24.38L247,254.76a.46.46,0,0,1-.13.37A.47.47,0,0,1,246.53,255.28Zm-37-1H246l-3.28-45.55L233,202.88H205.8Z" class="animable" style="fill:#407bff;transform-origin:225.901px 228.595px"/><polygon id="el88su1gq768e" points="243.19 208.48 233.09 202.4 236.8 210.46 243.19 208.48" class="animable" style="fill:#ebebeb;transform-origin:238.14px 206.43px"/><path id="el6q1s3179ql8" d="M236.8,210.94a.49.49,0,0,1-.44-.28l-3.71-8.06a.5.5,0,0,1,.11-.57.5.5,0,0,1,.58-.05l10.1,6.08a.5.5,0,0,1,.24.48.49.49,0,0,1-.34.4l-6.4,2Zm-2.61-7.32,2.87,6.25,5-1.53Z" class="animable" style="fill:#407bff;transform-origin:238.144px 206.425px"/><path id="eljjshh45tqb" d="M221,226a2,2,0,0,1-2,2.11,2.31,2.31,0,0,1-2.26-2.11,1.94,1.94,0,0,1,2-2.12A2.32,2.32,0,0,1,221,226Z" class="animable" style="fill:#407bff;transform-origin:218.867px 225.994px"/><path id="eltnfyejyqdhr" d="M234.7,226a1.94,1.94,0,0,1-2,2.11,2.32,2.32,0,0,1-2.27-2.11,2,2,0,0,1,2-2.12A2.31,2.31,0,0,1,234.7,226Z" class="animable" style="fill:#407bff;transform-origin:232.567px 225.996px"/><path id="ellf1lt4hkxp" d="M238.58,239.74a.49.49,0,0,1-.48-.45c-.25-3.41-5.59-6.18-11.9-6.18-4.19,0-7.95,1.25-9.81,3.25a3.74,3.74,0,0,0-1.14,2.86.49.49,0,0,1-1,.07,4.76,4.76,0,0,1,1.4-3.59c2-2.19,6.07-3.56,10.52-3.56,6.93,0,12.58,3.11,12.86,7.08a.48.48,0,0,1-.45.51Z" class="animable" style="fill:#407bff;transform-origin:226.638px 235.948px"/><path id="el9wzrmxl7d0k" d="M213.17,221.72a.51.51,0,0,1-.33-.13.49.49,0,0,1,0-.69l2.13-2.29a.49.49,0,0,1,.68,0,.48.48,0,0,1,0,.68l-2.13,2.29A.48.48,0,0,1,213.17,221.72Z" class="animable" style="fill:#407bff;transform-origin:214.245px 220.096px"/><path id="elpftrz1mzrd" d="M237.58,221.72a.55.55,0,0,1-.33-.13l-2.45-2.29a.48.48,0,0,1,0-.69.49.49,0,0,1,.68,0l2.45,2.29a.48.48,0,0,1,0,.68A.52.52,0,0,1,237.58,221.72Z" class="animable" style="fill:#407bff;transform-origin:236.362px 220.096px"/><path id="elcjqineix56" d="M202.26,265.15h2.26l3.26,4.34-.31-4.34h2.28l.56,7.84H208l-3.24-4.31.31,4.31h-2.28Z" class="animable" style="fill:#407bff;transform-origin:206.285px 269.07px"/><path id="elnyur44gzwk" d="M211.33,269.07a3.8,3.8,0,0,1,.86-3,3.76,3.76,0,0,1,2.9-1.07,4.38,4.38,0,0,1,3.09,1.05,4.32,4.32,0,0,1,1.27,2.94,4.77,4.77,0,0,1-.3,2.25,3,3,0,0,1-1.24,1.37,4.16,4.16,0,0,1-2.14.49,5.25,5.25,0,0,1-2.23-.42,3.62,3.62,0,0,1-1.5-1.34A4.66,4.66,0,0,1,211.33,269.07Zm2.43,0a2.73,2.73,0,0,0,.56,1.7,1.59,1.59,0,0,0,1.24.52,1.38,1.38,0,0,0,1.17-.51A2.75,2.75,0,0,0,217,269a2.57,2.57,0,0,0-.56-1.62,1.64,1.64,0,0,0-1.25-.51,1.38,1.38,0,0,0-1.14.52A2.53,2.53,0,0,0,213.76,269.09Z" class="animable" style="fill:#407bff;transform-origin:215.384px 269.047px"/><path id="el49pw2wwh53" d="M224.15,265.15h3.6a4.51,4.51,0,0,1,1.74.29,3.06,3.06,0,0,1,1.14.83,3.76,3.76,0,0,1,.71,1.25,6.3,6.3,0,0,1,.3,1.52,5.08,5.08,0,0,1-.15,1.95,2.8,2.8,0,0,1-.71,1.16,2.3,2.3,0,0,1-1,.62,5.6,5.6,0,0,1-1.43.22h-3.59Zm2.55,1.78.31,4.28h.59a2.45,2.45,0,0,0,1.07-.17,1,1,0,0,0,.46-.59,3.54,3.54,0,0,0,.08-1.36,2.72,2.72,0,0,0-.53-1.7,1.81,1.81,0,0,0-1.38-.46Z" class="animable" style="fill:#407bff;transform-origin:227.912px 269.069px"/><path id="eloxfae8enyd" d="M237.45,271.69H234.7l-.29,1.3h-2.47l2.38-7.84H237l3.51,7.84h-2.54Zm-.63-1.69-1.06-2.82L235.1,270Z" class="animable" style="fill:#407bff;transform-origin:236.225px 269.07px"/><path id="eluyfuwdkk6j" d="M239.37,265.15h7.36l.14,1.94H244.4l.42,5.9H242.4l-.42-5.9h-2.47Z" class="animable" style="fill:#407bff;transform-origin:243.12px 269.07px"/><path id="el1vpinan37op" d="M252.37,271.69h-2.75l-.29,1.3h-2.47l2.38-7.84h2.64l3.5,7.84h-2.53Zm-.63-1.69-1.07-2.82L250,270Z" class="animable" style="fill:#407bff;transform-origin:251.12px 269.07px"/></g><g style="transform-origin:336.555px 264.616px" id="freepik--Character--inject-2" class="animable"><path id="elpajj1jir3h" d="M353.69,173.08c.89-.45,2-1,2.94-1.57s2-1.12,3-1.72c1.95-1.21,3.93-2.4,5.8-3.72a76.94,76.94,0,0,0,10.52-8.66c.41-.38.77-.8,1.16-1.21l.57-.61.28-.3.14-.16s0,0,0,0l0,0c-.14.27,0,.19,0-.07a5.28,5.28,0,0,0,.15-1.09,30.6,30.6,0,0,0-.73-6.32c-.89-4.48-2.24-9.1-3.57-13.62l3.88-1.7a81.31,81.31,0,0,1,6.11,13.6,31.67,31.67,0,0,1,1.72,7.89,12,12,0,0,1-.08,2.51,7.71,7.71,0,0,1-1.22,3.29l-.17.23-.13.16-.15.19-.31.38-.62.75c-.41.49-.81,1-1.25,1.47A71.85,71.85,0,0,1,370.35,173c-2,1.48-4.12,2.9-6.29,4.19-1.07.65-2.16,1.27-3.27,1.88s-2.19,1.17-3.47,1.77Z" class="animable" style="fill:#ffb573;transform-origin:369.691px 156.585px"/><path id="elzl77f3lw8lq" d="M344.79,408.18a10.27,10.27,0,0,0,2.22-.3.22.22,0,0,0,.15-.16.21.21,0,0,0-.09-.2c-.29-.19-2.83-1.83-3.81-1.39a.68.68,0,0,0-.39.56,1.13,1.13,0,0,0,.33,1.05A2.35,2.35,0,0,0,344.79,408.18Zm1.65-.58c-1.45.29-2.55.24-3-.15a.77.77,0,0,1-.2-.71.3.3,0,0,1,.17-.25C343.94,406.26,345.41,407,346.44,407.6Z" class="animable" style="fill:#407bff;transform-origin:345.004px 407.122px"/><path id="elxotb4ppaxo" d="M347,407.88l.1,0a.21.21,0,0,0,.1-.17c0-.11,0-2.52-.92-3.32a1,1,0,0,0-.84-.27.69.69,0,0,0-.67.55c-.19,1,1.33,2.75,2.13,3.21A.18.18,0,0,0,347,407.88Zm-1.43-3.39a.66.66,0,0,1,.44.17,4.53,4.53,0,0,1,.78,2.64c-.8-.64-1.75-2-1.63-2.57,0-.09.07-.21.32-.24Z" class="animable" style="fill:#407bff;transform-origin:345.977px 405.998px"/><path id="el0jsny7o4x8t" d="M346.22,148.07c-1,5-3,15,.45,18.35,0,0-1.36,5-10.59,5-10.16,0-4.85-5-4.85-5,5.54-1.32,5.39-5.43,4.43-9.3Z" class="animable" style="fill:#ffb573;transform-origin:338.257px 159.745px"/><path id="elb9s7oxsmro4" d="M329.28,168.42c-1.59.22-.23-3.91.41-4.34,1.5-1,20.86-2.39,20.73,0-.08,1-.56,3-1.4,3.66S343.2,166.34,329.28,168.42Z" class="animable" style="fill:#263238;transform-origin:339.479px 165.594px"/><path id="eleokh2je37fr" d="M332.44,167c-1.27.43-1.15-3.73-.72-4.23,1-1.16,16.67-5.18,17.13-2.91.18,1,.27,3-.27,3.71S343.44,163.11,332.44,167Z" class="animable" style="fill:#263238;transform-origin:340.206px 163.104px"/><path id="elbtuqrmnzrg5" d="M326.61,139.11a.4.4,0,0,1-.33-.15,3.18,3.18,0,0,0-2.59-1.23.39.39,0,0,1-.44-.35.4.4,0,0,1,.35-.43,3.91,3.91,0,0,1,3.29,1.51.4.4,0,0,1-.05.56A.5.5,0,0,1,326.61,139.11Z" class="animable" style="fill:#263238;transform-origin:325.115px 138.028px"/><path id="elgp67lxp8f6e" d="M324.67,144a17.91,17.91,0,0,1-2,4.53,2.9,2.9,0,0,0,2.44.21Z" class="animable" style="fill:#ff5652;transform-origin:323.89px 146.458px"/><path id="el6ge13oxta0o" d="M325.16,142.79c.07.67-.24,1.25-.68,1.29s-.85-.46-.91-1.14.24-1.25.67-1.29S325.09,142.11,325.16,142.79Z" class="animable" style="fill:#263238;transform-origin:324.366px 142.865px"/><path id="elba2vl50vhs" d="M324.44,141.67l-1.66-.31S323.73,142.54,324.44,141.67Z" class="animable" style="fill:#263238;transform-origin:323.61px 141.675px"/><polygon id="el9bnpw3rhemg" points="356.7 407.69 348.32 407.69 348.98 388.29 357.36 388.29 356.7 407.69" class="animable" style="fill:#ffb573;transform-origin:352.84px 397.99px"/><path id="ely0mamzp6wuc" d="M347.66,406.72h9.41a.66.66,0,0,1,.67.57l1.07,7.44a1.34,1.34,0,0,1-1.34,1.49c-3.28-.05-4.86-.25-9-.25-2.55,0-6.27.27-9.78.27s-3.71-3.48-2.24-3.79c6.56-1.42,7.6-3.36,9.81-5.22A2.21,2.21,0,0,1,347.66,406.72Z" class="animable" style="fill:#263238;transform-origin:347.203px 411.48px"/><g id="elgnjuxpabwz4"><g class="animable" style="opacity:.2;transform-origin:353px 393.29px"><polygon style="transform-origin:353px 393.29px" id="eldg1w4ed190l" points="357.36 388.29 348.98 388.29 348.64 398.29 357.02 398.29 357.36 388.29" class="animable"/></g></g><path id="elc9zb5kt32cv" d="M323.37,178a162.48,162.48,0,0,1-15.05-6.75,91.24,91.24,0,0,1-14.4-8.77,34.31,34.31,0,0,1-3.42-3.07c-.28-.3-.56-.58-.83-.93a11.32,11.32,0,0,1-.88-1.13,7.9,7.9,0,0,1-1.34-3.61,8.22,8.22,0,0,1,.49-3.62,10.64,10.64,0,0,1,1.41-2.6,18.13,18.13,0,0,1,3.39-3.52,42,42,0,0,1,7.3-4.67c1.24-.66,2.5-1.25,3.78-1.8s2.54-1.07,3.91-1.54l1.77,3.85c-4.36,2.75-8.88,5.78-12.2,9.16a13.86,13.86,0,0,0-1.95,2.49c-.48.79-.47,1.38-.39,1.33s0,0,.14.1l.4.43c.15.18.36.36.55.55a25.62,25.62,0,0,0,2.69,2.16,62.92,62.92,0,0,0,6.44,4c2.25,1.26,4.57,2.45,6.93,3.59,4.72,2.26,9.6,4.43,14.39,6.41Z" class="animable" style="fill:#ffb573;transform-origin:306.959px 156.995px"/><path id="el2h3bnci29zh" d="M312,137.15l1.38-3L307.06,132s-2,5.91.37,8.63h0A6.05,6.05,0,0,0,312,137.15Z" class="animable" style="fill:#ffb573;transform-origin:309.826px 136.315px"/><polygon id="eldkxnbi5u26l" points="313.35 127.66 308.32 126.2 307.06 131.96 313.35 134.15 313.35 127.66" class="animable" style="fill:#ffb573;transform-origin:310.205px 130.175px"/><path id="el0cd6yssu0geo" d="M378.35,134.44l.73-7L372.6,129s-.1,6.58,3.33,7.62Z" class="animable" style="fill:#ffb573;transform-origin:375.84px 132.03px"/><polygon id="elz2h7bkcgrza" points="375.96 122.51 371.73 124.48 372.6 128.95 379.08 127.42 375.96 122.51" class="animable" style="fill:#ffb573;transform-origin:375.405px 125.73px"/><path id="elwblg325ejgk" d="M347.54,138.25c.31,8.31.61,11.82-3.14,16.47-5.65,7-15.92,5.55-18.7-2.5-2.5-7.24-2.58-19.61,5.18-23.69A11.34,11.34,0,0,1,347.54,138.25Z" class="animable" style="fill:#ffb573;transform-origin:335.951px 143.207px"/><path id="eljlw3qnx1cjc" d="M343.92,154.71c8.16-3.53,13.52-11,11.26-22.58-2.17-11.11-9.67-12.21-12.77-9.91s-10.83-1.13-15.47,2.77c-8,6.77-.44,14,3.52,18.37C332.82,148.22,335.92,158.16,343.92,154.71Z" class="animable" style="fill:#263238;transform-origin:339.556px 138.327px"/><path id="el9u3ufwks76s" d="M340.53,130.14a8.29,8.29,0,1,0,1.83-11.92A8.53,8.53,0,0,0,340.53,130.14Z" class="animable" style="fill:#407bff;transform-origin:347.118px 125.043px"/><path id="el8c3sv4zjoh" d="M342.65,123c-1.17-6.7,5.16-11.86,13.64-9.37s4,10,2.25,16,2.83,11.72,4.73,7.15-1.3-6-1.3-6,9,2.33.64,12.48-15.93-1.06-13.88-7.67C350.39,130.28,343.76,129.33,342.65,123Z" class="animable" style="fill:#263238;transform-origin:354.339px 130.164px"/><path id="ely6va4y7gu5" d="M334.18,125.53c-3.87-2-10.42-3.65-14.15,2.63-1.76,3-1.08,7-1.08,7l11.39.75Z" class="animable" style="fill:#263238;transform-origin:326.5px 129.819px"/><path id="el38k8i8qrv1i" d="M317.61,133.18h0a.26.26,0,0,1-.24-.27c0-.17.29-4.19,2.72-6.71,5.87-6.1,12.75-1,14.71.65a.25.25,0,0,1-.32.38c-1.89-1.62-8.47-6.47-14-.69-2.3,2.39-2.58,6.36-2.58,6.4A.25.25,0,0,1,317.61,133.18Z" class="animable" style="fill:#263238;transform-origin:326.119px 128.233px"/><path id="elnjmx9mgar1l" d="M331.85,143a6.89,6.89,0,0,1-1.65,4.28c-1.38,1.62-3,.82-3.33-1-.33-1.61,0-4.4,1.74-5.37S331.87,141.18,331.85,143Z" class="animable" style="fill:#ffb573;transform-origin:329.303px 144.363px"/><path id="elc4veroae2ko" d="M330.05,219.12s.54,58.15,5.58,90.55c4.08,26.17,11.61,86.69,11.61,86.69h11.43s1.11-58.43-1-84.31c-5.23-65.5,8.28-77.75-2.62-92.93Z" class="animable" style="fill:#263238;transform-origin:344.743px 307.74px"/><g id="elh7dx30vttnk"><path style="fill:#fff;opacity:.1;transform-origin:344.743px 307.74px" d="M330.05,219.12s.54,58.15,5.58,90.55c4.08,26.17,11.61,86.69,11.61,86.69h11.43s1.11-58.43-1-84.31c-5.23-65.5,8.28-77.75-2.62-92.93Z" class="animable"/></g><g id="elx7kf57ma518"><path style="opacity:.3;transform-origin:334.289px 271.702px" d="M336.06,245.5c4,17.55.81,45.19-1.38,57.36-2.32-18.48-3.49-42.43-4.07-60C332.68,239.52,334.64,239.3,336.06,245.5Z" class="animable"/></g><polygon id="el4gvsvij9nip" points="345.68 396.58 360.23 396.58 360.99 391.48 345.6 390.96 345.68 396.58" class="animable" style="fill:#407bff;transform-origin:353.295px 393.77px"/><path id="el99khxdbqt5" d="M349.83,170c1.37-2.72,8.73-4.43,12.75-4.42l3,13.36s-8,11.89-11.34,10.63C350.31,188.12,346.9,175.87,349.83,170Z" class="animable" style="fill:#407bff;transform-origin:357.154px 177.622px"/><g id="elgv4x3nl2j5"><path style="opacity:.4;transform-origin:357.154px 177.622px" d="M349.83,170c1.37-2.72,8.73-4.43,12.75-4.42l3,13.36s-8,11.89-11.34,10.63C350.31,188.12,346.9,175.87,349.83,170Z" class="animable"/></g><path id="el4ara1n0jk0q" d="M341.35,393.31a.19.19,0,0,0,0-.19.2.2,0,0,0-.21-.11c-.42.07-4.12.65-4.62,1.71a.65.65,0,0,0,0,.63,1.1,1.1,0,0,0,.86.57c1.21.12,3-1.56,3.9-2.58Zm-4.44,1.54c.34-.56,2.26-1.08,3.72-1.35-1.32,1.34-2.48,2.09-3.16,2a.71.71,0,0,1-.56-.38.25.25,0,0,1,0-.25S336.9,394.86,336.91,394.85Z" class="animable" style="fill:#407bff;transform-origin:338.907px 394.467px"/><path id="ellgvk4hkgfs" d="M341.35,393.31a.05.05,0,0,0,0,0,.19.19,0,0,0,0-.19c-.06-.07-1.54-1.78-2.91-1.87a1.44,1.44,0,0,0-1.09.37c-.41.37-.37.69-.27.89.43.86,3.09,1.16,4.16.93A.18.18,0,0,0,341.35,393.31Zm-3.91-1.26a.79.79,0,0,1,.16-.18,1,1,0,0,1,.79-.27,4.6,4.6,0,0,1,2.39,1.47c-1.19.1-3.11-.26-3.37-.78A.24.24,0,0,1,337.44,392.05Z" class="animable" style="fill:#407bff;transform-origin:339.194px 392.38px"/><polygon id="eljfz8seh7ox" points="350.08 389.76 342.42 393.17 339.01 386.06 334.55 376.76 334.02 375.68 341.68 372.27 342.27 373.49 346.59 382.5 350.08 389.76" class="animable" style="fill:#ffb573;transform-origin:342.05px 382.72px"/><g id="elycenve4bpc"><polygon style="opacity:.2;transform-origin:340.57px 379.775px" points="346.59 382.5 339.01 386.06 334.55 376.76 342.27 373.49 346.59 382.5" class="animable"/></g><path id="elcai9uw0e744" d="M321.07,219.12S296.6,280,303.23,308.6c6,25.89,32.5,74.92,32.5,74.92L346,378.38s-16.39-59.19-18.16-72.05c-3.46-25,18.77-60.33,18.77-87.21Z" class="animable" style="fill:#263238;transform-origin:324.35px 301.32px"/><g id="els7qktfwg57"><path style="fill:#fff;opacity:.1;transform-origin:324.35px 301.32px" d="M321.07,219.12S296.6,280,303.23,308.6c6,25.89,32.5,74.92,32.5,74.92L346,378.38s-16.39-59.19-18.16-72.05c-3.46-25,18.77-60.33,18.77-87.21Z" class="animable"/></g><path id="elaxi9yrn5ee9" d="M341.06,392.1l7.6-5.53a.66.66,0,0,1,.88.06l5.25,5.39a1.35,1.35,0,0,1-.21,2c-2.69,1.88-4.08,2.66-7.42,5.09-2.06,1.5-6.16,4.81-9,6.88s-5-.63-4-1.74c4.48-5,5.42-8.1,6.12-10.91A2.17,2.17,0,0,1,341.06,392.1Z" class="animable" style="fill:#263238;transform-origin:344.525px 396.59px"/><polygon id="elbazcnwg3sg" points="335.07 385.69 348.3 379.64 346.61 374.25 332.44 380.71 335.07 385.69" class="animable" style="fill:#407bff;transform-origin:340.37px 379.97px"/><path id="el1lcrgctjo9x" d="M327.56,169.36c-1.09-2.84-10.65-6-15.45-7L310,178.08s7.84,11.26,11.27,10.33C325.33,187.31,329.92,175.45,327.56,169.36Z" class="animable" style="fill:#407bff;transform-origin:319.102px 175.412px"/><g id="elh8k3ppj972"><path style="opacity:.4;transform-origin:319.102px 175.412px" d="M327.56,169.36c-1.09-2.84-10.65-6-15.45-7L310,178.08s7.84,11.26,11.27,10.33C325.33,187.31,329.92,175.45,327.56,169.36Z" class="animable"/></g><path id="el0iyn7glrj0w5" d="M317.07,168.57s-4,1.4,4,50.55h34c-.57-13.84-.59-22.38,6-50.8a100.28,100.28,0,0,0-14.45-1.9,107.4,107.4,0,0,0-15.44,0C324.59,167,317.07,168.57,317.07,168.57Z" class="animable" style="fill:#407bff;transform-origin:338.57px 192.631px"/><g id="el3g7f156kob5"><path style="opacity:.4;transform-origin:338.57px 192.631px" d="M317.07,168.57s-4,1.4,4,50.55h34c-.57-13.84-.59-22.38,6-50.8a100.28,100.28,0,0,0-14.45-1.9,107.4,107.4,0,0,0-15.44,0C324.59,167,317.07,168.57,317.07,168.57Z" class="animable"/></g><path id="elpw1zjekp2iq" d="M355.6,217.13l1.53,3c.12.24-.16.48-.55.48H320.9c-.31,0-.56-.15-.58-.35l-.31-3c0-.21.25-.39.58-.39H355A.61.61,0,0,1,355.6,217.13Z" class="animable" style="fill:#407bff;transform-origin:338.584px 218.736px"/><g id="elaaodetj7fza"><path style="fill:#fff;opacity:.3;transform-origin:338.584px 218.736px" d="M355.6,217.13l1.53,3c.12.24-.16.48-.55.48H320.9c-.31,0-.56-.15-.58-.35l-.31-3c0-.21.25-.39.58-.39H355A.61.61,0,0,1,355.6,217.13Z" class="animable"/></g><path id="elji1wwo7dv49" d="M351,221h.92c.19,0,.33-.1.31-.21l-.43-4c0-.12-.17-.21-.35-.21h-.93c-.18,0-.32.09-.31.21l.43,4C350.63,220.88,350.79,221,351,221Z" class="animable" style="fill:#263238;transform-origin:351.221px 218.79px"/><path id="elwr1go5rwpx" d="M328.61,221h.92c.18,0,.32-.1.31-.21l-.43-4c0-.12-.17-.21-.36-.21h-.92c-.19,0-.32.09-.31.21l.43,4C328.26,220.88,328.42,221,328.61,221Z" class="animable" style="fill:#263238;transform-origin:328.83px 218.79px"/></g><defs><filter id="active" height="200%"><feMorphology in="SourceAlpha" operator="dilate" radius="2" result="DILATED"/><feFlood flood-color="#32DFEC" flood-opacity="1" result="PINK"/><feComposite in="PINK" in2="DILATED" operator="in" result="OUTLINE"/><feMerge><feMergeNode in="OUTLINE"/><feMergeNode in="SourceGraphic"/></feMerge></filter><filter id="hover" height="200%"><feMorphology in="SourceAlpha" operator="dilate" radius="2" result="DILATED"/><feFlood flood-color="red" flood-opacity=".5" result="PINK"/><feComposite in="PINK" in2="DILATED" operator="in" result="OUTLINE"/><feMerge><feMergeNode in="OUTLINE"/><feMergeNode in="SourceGraphic"/></feMerge><feColorMatrix type="matrix" values="0 0 0 0 0 0 1 0 0 0 0 0 0 0 0 0 0 0 1 0"/></filter></defs></svg>